<svg width="21" height="21" viewBox="0 0 21 21" fill="none" xmlns="http://www.w3.org/2000/svg">
<path d="M5.66662 12.1397H7.33329L9.83329 14.6397H8.16662L5.66662 12.1397ZM3.99996 3.80635H4.83329V2.97302C4.83329 2.75201 4.92109 2.54004 5.07737 2.38376C5.23365 2.22748 5.44561 2.13969 5.66662 2.13969H8.99996C9.22097 2.13969 9.43293 2.22748 9.58921 2.38376C9.74549 2.54004 9.83329 2.75201 9.83329 2.97302V3.80635H11.5V2.97302C11.5 2.75201 11.5878 2.54004 11.744 2.38376C11.9003 2.22748 12.1123 2.13969 12.3333 2.13969H15.6666C15.8876 2.13969 16.0996 2.22748 16.2559 2.38376C16.4122 2.54004 16.5 2.75201 16.5 2.97302V3.80635H17.3333C17.7753 3.80635 18.1992 3.98195 18.5118 4.29451C18.8244 4.60707 19 5.03099 19 5.47302V16.3064C19 16.7484 18.8244 17.1723 18.5118 17.4849C18.1992 17.7974 17.7753 17.973 17.3333 17.973V18.8064H14.8333V17.973H6.49996V18.8064H3.99996V17.973C3.55793 17.973 3.13401 17.7974 2.82145 17.4849C2.50888 17.1723 2.33329 16.7484 2.33329 16.3064V5.47302C2.33329 5.03099 2.50888 4.60707 2.82145 4.29451C3.13401 3.98195 3.55793 3.80635 3.99996 3.80635ZM15.6666 6.30635C15.8876 6.30635 16.0996 6.39415 16.2559 6.55043C16.4122 6.70671 16.5 6.91867 16.5 7.13969C16.5 7.3607 16.4122 7.57266 16.2559 7.72894C16.0996 7.88522 15.8876 7.97302 15.6666 7.97302C15.4456 7.97302 15.2336 7.88522 15.0774 7.72894C14.9211 7.57266 14.8333 7.3607 14.8333 7.13969C14.8333 6.91867 14.9211 6.70671 15.0774 6.55043C15.2336 6.39415 15.4456 6.30635 15.6666 6.30635ZM12.3333 6.30635C12.5543 6.30635 12.7663 6.39415 12.9225 6.55043C13.0788 6.70671 13.1666 6.91867 13.1666 7.13969C13.1666 7.3607 13.0788 7.57266 12.9225 7.72894C12.7663 7.88522 12.5543 7.97302 12.3333 7.97302C12.1123 7.97302 11.9003 7.88522 11.744 7.72894C11.5878 7.57266 11.5 7.3607 11.5 7.13969C11.5 6.91867 11.5878 6.70671 11.744 6.55043C11.9003 6.39415 12.1123 6.30635 12.3333 6.30635ZM17.3333 5.47302H3.99996V8.80635H17.3333V5.47302ZM3.99996 16.3064H17.3333V10.473H3.99996V16.3064ZM5.66662 6.30635C5.88764 6.30635 6.0996 6.39415 6.25588 6.55043C6.41216 6.70671 6.49996 6.91867 6.49996 7.13969C6.49996 7.3607 6.41216 7.57266 6.25588 7.72894C6.0996 7.88522 5.88764 7.97302 5.66662 7.97302C5.44561 7.97302 5.23365 7.88522 5.07737 7.72894C4.92109 7.57266 4.83329 7.3607 4.83329 7.13969C4.83329 6.91867 4.92109 6.70671 5.07737 6.55043C5.23365 6.39415 5.44561 6.30635 5.66662 6.30635ZM11.5 12.1397H13.1666L15.6666 14.6397H14L11.5 12.1397Z" fill="#171E1D"/>
</svg>
