<svg width="21" height="21" viewBox="0 0 21 21" fill="none" xmlns="http://www.w3.org/2000/svg">
<g clip-path="url(#clip0_68_4044)">
<path d="M17.7213 4.24959L12.9807 2.82771L15.3244 1.65584C15.4725 1.58125 15.5848 1.4509 15.6368 1.29347C15.6887 1.13604 15.676 0.964429 15.6014 0.816384C15.5268 0.66834 15.3965 0.55599 15.239 0.504051C15.0816 0.452113 14.91 0.464839 14.7619 0.539431L11.1354 2.35193C9.50552 2.39428 7.95658 3.07121 6.8184 4.23858C5.68021 5.40595 5.0427 6.97153 5.04163 8.60193V16.723C5.04163 16.8888 5.10747 17.0478 5.22468 17.165C5.34189 17.2822 5.50087 17.348 5.66663 17.348C5.83239 17.348 5.99136 17.2822 6.10857 17.165C6.22578 17.0478 6.29163 16.8888 6.29163 16.723V14.223H7.54163V18.598C7.54163 18.9295 7.67332 19.2475 7.90774 19.4819C8.14216 19.7163 8.46011 19.848 8.79163 19.848H13.7916C14.1231 19.848 14.4411 19.7163 14.6755 19.4819C14.9099 19.2475 15.0416 18.9295 15.0416 18.598V8.59803C15.0404 7.71224 14.7261 6.8554 14.1542 6.17892C13.5824 5.50244 12.7898 5.04986 11.9166 4.90115V3.81287L17.3619 5.44646C17.4411 5.47226 17.5247 5.48197 17.6077 5.47501C17.6907 5.46805 17.7715 5.44457 17.8453 5.40595C17.9191 5.36733 17.9844 5.31435 18.0375 5.25012C18.0905 5.18589 18.1301 5.1117 18.1541 5.03193C18.1781 4.95215 18.1858 4.86839 18.1769 4.78557C18.1681 4.70275 18.1427 4.62254 18.1024 4.54965C18.0621 4.47676 18.0076 4.41267 17.9422 4.36114C17.8767 4.30961 17.8016 4.27169 17.7213 4.24959ZM6.29163 12.973V8.59803C6.29314 7.38076 6.73818 6.20576 7.54346 5.29292C8.34873 4.38008 9.45905 3.79197 10.6666 3.63865V4.90115C9.79341 5.04986 9.00086 5.50244 8.42902 6.17892C7.85719 6.8554 7.54287 7.71224 7.54163 8.59803V12.973H6.29163ZM13.7916 18.598H8.79163V14.223H13.7916V18.598ZM13.7916 8.59803V12.973H8.79163V8.59803C8.79163 7.93498 9.05502 7.2991 9.52386 6.83026C9.9927 6.36142 10.6286 6.09803 11.2916 6.09803C11.9547 6.09803 12.5906 6.36142 13.0594 6.83026C13.5282 7.2991 13.7916 7.93498 13.7916 8.59803Z" fill="#171E1D"/>
</g>
<defs>
<clipPath id="clip0_68_4044">
<rect width="20" height="20" fill="white" transform="translate(0.666626 0.473022)"/>
</clipPath>
</defs>
</svg>
