<svg width="17" height="17" viewBox="0 0 17 17" fill="none" xmlns="http://www.w3.org/2000/svg">
<path fill-rule="evenodd" clip-rule="evenodd" d="M8.65099 0.882376C8.59501 0.755391 8.50545 0.647848 8.39292 0.572469C8.28038 0.49709 8.14957 0.457031 8.01596 0.457031C7.88236 0.457031 7.75154 0.49709 7.63901 0.572469C7.52647 0.647848 7.43691 0.755391 7.38094 0.882376L5.37375 5.43574L0.61736 6.02651C0.484655 6.04291 0.359217 6.09876 0.255891 6.18746C0.152566 6.27615 0.0756776 6.39397 0.0343273 6.52698C-0.00702307 6.65999 -0.0111048 6.80261 0.0225652 6.93797C0.0562352 7.07333 0.126247 7.19575 0.224316 7.29076L3.74213 10.6948L2.80848 15.6142C2.78254 15.7513 2.79466 15.8934 2.84341 16.0235C2.89215 16.1537 2.97547 16.2665 3.08353 16.3486C3.19158 16.4308 3.31985 16.4789 3.45317 16.4871C3.58649 16.4954 3.71928 16.4635 3.83585 16.3953L8.01596 13.9459L12.1961 16.3953C12.3127 16.4638 12.4457 16.4959 12.5792 16.4877C12.7127 16.4795 12.8412 16.4314 12.9494 16.3491C13.0576 16.2669 13.141 16.1538 13.1897 16.0234C13.2384 15.893 13.2504 15.7508 13.2241 15.6135L12.2905 10.6955L15.8076 7.29076C15.9057 7.19575 15.9757 7.07333 16.0094 6.93797C16.043 6.80261 16.0389 6.65999 15.9976 6.52698C15.9562 6.39397 15.8794 6.27615 15.776 6.18746C15.6727 6.09876 15.5473 6.04291 15.4146 6.02651L10.6575 5.43501L8.65099 0.882376Z" fill="#FAC50A"/>
</svg>
